<svg xmlns="http://www.w3.org/2000/svg" height="22" viewBox="0 -960 960 960" width="22"><path fill="#fff" d="M180.001-400v-59.999h280V-400h-280Zm0-160v-59.999h440V-560h-440Zm0-160v-59.999h440V-720h-440Zm344.615 539.999v-105.692l217.153-216.153q7.462-7.461 16.111-10.5 8.65-3.038 17.299-3.038 9.436 0 18.252 3.538 8.816 3.539 16.029 10.615l37 37.385q6.462 7.461 10 16.153 3.539 8.693 3.539 17.385 0 8.692-3.231 17.692t-10.308 16.461L630.307-180.001H524.616Zm287.691-250.307-37-37.385 37 37.385Zm-240 202.615h38l129.847-130.462-18.385-19-18.615-18.769-130.847 130.231v38Zm149.462-149.462-18.615-18.769 37 37.769-18.385-19Z"/></svg>