<?xml version="1.0" standalone="no"?>
<!DOCTYPE svg PUBLIC "-//W3C//DTD SVG 20010904//EN"
 "http://www.w3.org/TR/2001/REC-SVG-20010904/DTD/svg10.dtd">
<svg version="1.0" xmlns="http://www.w3.org/2000/svg"
 width="700.000000pt" height="700.000000pt" viewBox="0 0 700.000000 700.000000"
 preserveAspectRatio="xMidYMid meet">
<metadata>
Created by potrace 1.14, written by Peter Selinger 2001-2017
</metadata>
<g transform="translate(0.000000,700.000000) scale(0.100000,-0.100000)"
fill="#000000" stroke="none">
<path d="M3378 6415 c-2 -2 -50 -5 -108 -9 -58 -3 -116 -8 -130 -10 -14 -3
-47 -7 -73 -11 -65 -8 -238 -43 -307 -61 -73 -20 -73 -20 -90 -26 -8 -3 -53
-18 -100 -33 -310 -99 -685 -309 -944 -528 -73 -62 -295 -282 -355 -352 -48
-56 -161 -209 -203 -275 -19 -30 -50 -77 -67 -105 -103 -160 -280 -569 -316
-731 -2 -11 -13 -55 -24 -99 -49 -199 -73 -407 -75 -645 -2 -148 5 -293 18
-390 14 -100 28 -187 36 -220 5 -19 11 -46 14 -60 71 -356 271 -789 515 -1114
272 -362 620 -650 1030 -855 113 -57 352 -158 388 -164 10 -2 56 -16 103 -30
88 -28 288 -71 375 -82 28 -4 61 -8 75 -11 103 -18 419 -24 595 -11 115 9 151
13 330 43 57 9 280 66 290 74 6 4 26 11 45 15 59 12 258 94 392 161 171 85
321 176 448 272 25 19 58 43 74 55 123 91 327 295 456 454 166 205 359 535
440 749 94 253 154 473 175 649 4 33 9 71 11 85 23 169 23 552 0 710 -3 14 -7
43 -9 65 -26 193 -85 420 -157 605 -12 30 -26 69 -32 85 -24 66 -171 346 -232
443 -350 555 -895 986 -1519 1202 -111 39 -314 93 -391 106 -21 3 -48 8 -60
10 -11 2 -41 7 -66 10 -25 3 -56 7 -70 9 -81 13 -471 29 -482 20z m1568 -1998
l203 -203 -1028 -1028 -1028 -1027 -620 619 -620 620 203 203 c112 112 207
200 211 196 4 -4 191 -191 416 -415 l407 -407 823 823 c452 452 824 822 826
822 3 0 96 -91 207 -203z"/>
</g>
</svg>
